# xmcd
#
# Track frame offsets:
#        150
#        21659
#        45137
#        67053
#        86273
#        106292
#        123912
#        148170
#        171139
#
# Disc length: 2589 seconds
#
# Revision: 0
# Processed by: cddbd v1.5.1PL2 Copyright (c) Steve Scherf et al.
# Submitted via: ExactAudioCopy v0.95a5
#
DISCID=750a1b09
DTITLE=NAKAYAMA MIHO - COLLECTION IV
DYEAR=2006
DGENRE=JPop
TTITLE0=CHEERS FOR YOU
TTITLE1=Hurt to Heart -Itaminoyukue-
TTITLE2=Thinking About You -Anatanoyoruwotsutsumitai-
TTITLE3=True Romance
TTITLE4=MiraihenoPRESENT
TTITLE5=MARCH COLOR
TTITLE6=LOVE CLOVER
TTITLE7=A Place Under the Sun
TTITLE8=Adore
EXTD=
EXTT0=
EXTT1=
EXTT2=
EXTT3=
EXTT4=
EXTT5=
EXTT6=
EXTT7=
EXTT8=
PLAYORDER=
